<?xml version="1.0" encoding="utf-8" standalone="no"?>
<!DOCTYPE svg PUBLIC "-//W3C//DTD SVG 1.1//EN"
  "http://www.w3.org/Graphics/SVG/1.1/DTD/svg11.dtd">
<!-- Created with matplotlib (https://matplotlib.org/) -->
<svg height="419.307187pt" version="1.1" viewBox="0 0 539.678125 419.307187" width="539.678125pt" xmlns="http://www.w3.org/2000/svg" xmlns:xlink="http://www.w3.org/1999/xlink">
 <defs>
  <style type="text/css">
*{stroke-linecap:butt;stroke-linejoin:round;}
  </style>
 </defs>
 <g id="figure_1">
  <g id="patch_1">
   <path d="M 0 419.307187 
L 539.678125 419.307187 
L 539.678125 0 
L 0 0 
z
" style="fill:#ffffff;"/>
  </g>
  <g id="axes_1">
   <g id="patch_2">
    <path d="M 86.078125 356.53875 
L 532.478125 356.53875 
L 532.478125 30.37875 
L 86.078125 30.37875 
z
" style="fill:#ffffff;"/>
   </g>
   <g id="matplotlib.axis_1">
    <g id="xtick_1">
     <g id="line2d_1">
      <path clip-path="url(#pcd6e945191)" d="M 185.793301 356.53875 
L 185.793301 30.37875 
" style="fill:none;stroke:#cccccc;stroke-linecap:round;"/>
     </g>
     <g id="text_1">
      <!-- −0.01 -->
      <defs>
       <path d="M 52.828125 31.203125 
L 5.5625 31.203125 
L 5.5625 39.40625 
L 52.828125 39.40625 
z
" id="ArialMT-8722"/>
       <path d="M 4.15625 35.296875 
Q 4.15625 48 6.765625 55.734375 
Q 9.375 63.484375 14.515625 67.671875 
Q 19.671875 71.875 27.484375 71.875 
Q 33.25 71.875 37.59375 69.546875 
Q 41.9375 67.234375 44.765625 62.859375 
Q 47.609375 58.5 49.21875 52.21875 
Q 50.828125 45.953125 50.828125 35.296875 
Q 50.828125 22.703125 48.234375 14.96875 
Q 45.65625 7.234375 40.5 3 
Q 35.359375 -1.21875 27.484375 -1.21875 
Q 17.140625 -1.21875 11.234375 6.203125 
Q 4.15625 15.140625 4.15625 35.296875 
z
M 13.1875 35.296875 
Q 13.1875 17.671875 17.3125 11.828125 
Q 21.4375 6 27.484375 6 
Q 33.546875 6 37.671875 11.859375 
Q 41.796875 17.71875 41.796875 35.296875 
Q 41.796875 52.984375 37.671875 58.78125 
Q 33.546875 64.59375 27.390625 64.59375 
Q 21.34375 64.59375 17.71875 59.46875 
Q 13.1875 52.9375 13.1875 35.296875 
z
" id="ArialMT-48"/>
       <path d="M 9.078125 0 
L 9.078125 10.015625 
L 19.09375 10.015625 
L 19.09375 0 
z
" id="ArialMT-46"/>
       <path d="M 37.25 0 
L 28.46875 0 
L 28.46875 56 
Q 25.296875 52.984375 20.140625 49.953125 
Q 14.984375 46.921875 10.890625 45.40625 
L 10.890625 53.90625 
Q 18.265625 57.375 23.78125 62.296875 
Q 29.296875 67.234375 31.59375 71.875 
L 37.25 71.875 
z
" id="ArialMT-49"/>
      </defs>
      <g style="fill:#262626;" transform="translate(157.961582 381.785937)scale(0.22 -0.22)">
       <use xlink:href="#ArialMT-8722"/>
       <use x="58.398438" xlink:href="#ArialMT-48"/>
       <use x="114.013672" xlink:href="#ArialMT-46"/>
       <use x="141.796875" xlink:href="#ArialMT-48"/>
       <use x="197.412109" xlink:href="#ArialMT-49"/>
      </g>
     </g>
    </g>
    <g id="xtick_2">
     <g id="line2d_2">
      <path clip-path="url(#pcd6e945191)" d="M 309.299202 356.53875 
L 309.299202 30.37875 
" style="fill:none;stroke:#cccccc;stroke-linecap:round;"/>
     </g>
     <g id="text_2">
      <!-- 0.00 -->
      <g style="fill:#262626;" transform="translate(287.892171 381.785937)scale(0.22 -0.22)">
       <use xlink:href="#ArialMT-48"/>
       <use x="55.615234" xlink:href="#ArialMT-46"/>
       <use x="83.398438" xlink:href="#ArialMT-48"/>
       <use x="139.013672" xlink:href="#ArialMT-48"/>
      </g>
     </g>
    </g>
    <g id="xtick_3">
     <g id="line2d_3">
      <path clip-path="url(#pcd6e945191)" d="M 432.805104 356.53875 
L 432.805104 30.37875 
" style="fill:none;stroke:#cccccc;stroke-linecap:round;"/>
     </g>
     <g id="text_3">
      <!-- 0.01 -->
      <g style="fill:#262626;" transform="translate(411.398073 381.785937)scale(0.22 -0.22)">
       <use xlink:href="#ArialMT-48"/>
       <use x="55.615234" xlink:href="#ArialMT-46"/>
       <use x="83.398438" xlink:href="#ArialMT-48"/>
       <use x="139.013672" xlink:href="#ArialMT-49"/>
      </g>
     </g>
    </g>
    <g id="text_4">
     <!-- $\Delta_t$ -->
     <defs>
      <path d="M 34.1875 63.1875 
L 14.15625 8.203125 
L 54.25 8.203125 
z
M 0.78125 0 
L 28.609375 72.90625 
L 39.796875 72.90625 
L 67.578125 0 
z
" id="DejaVuSans-916"/>
      <path d="M 42.28125 54.6875 
L 40.921875 47.703125 
L 23 47.703125 
L 17.1875 18.015625 
Q 16.890625 16.359375 16.75 15.234375 
Q 16.609375 14.109375 16.609375 13.484375 
Q 16.609375 10.359375 18.484375 8.9375 
Q 20.359375 7.515625 24.515625 7.515625 
L 33.59375 7.515625 
L 32.078125 0 
L 23.484375 0 
Q 15.484375 0 11.546875 3.125 
Q 7.625 6.25 7.625 12.59375 
Q 7.625 13.71875 7.765625 15.0625 
Q 7.90625 16.40625 8.203125 18.015625 
L 14.015625 47.703125 
L 6.390625 47.703125 
L 7.8125 54.6875 
L 15.28125 54.6875 
L 18.3125 70.21875 
L 27.296875 70.21875 
L 24.3125 54.6875 
z
" id="DejaVuSans-Oblique-116"/>
     </defs>
     <g style="fill:#262626;" transform="translate(297.278125 407.337187)scale(0.24 -0.24)">
      <use transform="translate(0 0.09375)" xlink:href="#DejaVuSans-916"/>
      <use transform="translate(69.365234 -16.3125)scale(0.7)" xlink:href="#DejaVuSans-Oblique-116"/>
     </g>
    </g>
   </g>
   <g id="matplotlib.axis_2">
    <g id="ytick_1">
     <g id="line2d_4">
      <path clip-path="url(#pcd6e945191)" d="M 86.078125 307.284585 
L 532.478125 307.284585 
" style="fill:none;stroke:#cccccc;stroke-linecap:round;"/>
     </g>
     <g id="text_5">
      <!-- −0.4 -->
      <defs>
       <path d="M 32.328125 0 
L 32.328125 17.140625 
L 1.265625 17.140625 
L 1.265625 25.203125 
L 33.9375 71.578125 
L 41.109375 71.578125 
L 41.109375 25.203125 
L 50.78125 25.203125 
L 50.78125 17.140625 
L 41.109375 17.140625 
L 41.109375 0 
z
M 32.328125 25.203125 
L 32.328125 57.46875 
L 9.90625 25.203125 
z
" id="ArialMT-52"/>
      </defs>
      <g style="fill:#262626;" transform="translate(33.14875 315.158179)scale(0.22 -0.22)">
       <use xlink:href="#ArialMT-8722"/>
       <use x="58.398438" xlink:href="#ArialMT-48"/>
       <use x="114.013672" xlink:href="#ArialMT-46"/>
       <use x="141.796875" xlink:href="#ArialMT-52"/>
      </g>
     </g>
    </g>
    <g id="ytick_2">
     <g id="line2d_5">
      <path clip-path="url(#pcd6e945191)" d="M 86.078125 250.378339 
L 532.478125 250.378339 
" style="fill:none;stroke:#cccccc;stroke-linecap:round;"/>
     </g>
     <g id="text_6">
      <!-- −0.2 -->
      <defs>
       <path d="M 50.34375 8.453125 
L 50.34375 0 
L 3.03125 0 
Q 2.9375 3.171875 4.046875 6.109375 
Q 5.859375 10.9375 9.828125 15.625 
Q 13.8125 20.3125 21.34375 26.46875 
Q 33.015625 36.03125 37.109375 41.625 
Q 41.21875 47.21875 41.21875 52.203125 
Q 41.21875 57.421875 37.46875 61 
Q 33.734375 64.59375 27.734375 64.59375 
Q 21.390625 64.59375 17.578125 60.78125 
Q 13.765625 56.984375 13.71875 50.25 
L 4.6875 51.171875 
Q 5.609375 61.28125 11.65625 66.578125 
Q 17.71875 71.875 27.9375 71.875 
Q 38.234375 71.875 44.234375 66.15625 
Q 50.25 60.453125 50.25 52 
Q 50.25 47.703125 48.484375 43.546875 
Q 46.734375 39.40625 42.65625 34.8125 
Q 38.578125 30.21875 29.109375 22.21875 
Q 21.1875 15.578125 18.9375 13.203125 
Q 16.703125 10.84375 15.234375 8.453125 
z
" id="ArialMT-50"/>
      </defs>
      <g style="fill:#262626;" transform="translate(33.14875 258.251933)scale(0.22 -0.22)">
       <use xlink:href="#ArialMT-8722"/>
       <use x="58.398438" xlink:href="#ArialMT-48"/>
       <use x="114.013672" xlink:href="#ArialMT-46"/>
       <use x="141.796875" xlink:href="#ArialMT-50"/>
      </g>
     </g>
    </g>
    <g id="ytick_3">
     <g id="line2d_6">
      <path clip-path="url(#pcd6e945191)" d="M 86.078125 193.472093 
L 532.478125 193.472093 
" style="fill:none;stroke:#cccccc;stroke-linecap:round;"/>
     </g>
     <g id="text_7">
      <!-- 0.0 -->
      <g style="fill:#262626;" transform="translate(45.998125 201.345687)scale(0.22 -0.22)">
       <use xlink:href="#ArialMT-48"/>
       <use x="55.615234" xlink:href="#ArialMT-46"/>
       <use x="83.398438" xlink:href="#ArialMT-48"/>
      </g>
     </g>
    </g>
    <g id="ytick_4">
     <g id="line2d_7">
      <path clip-path="url(#pcd6e945191)" d="M 86.078125 136.565847 
L 532.478125 136.565847 
" style="fill:none;stroke:#cccccc;stroke-linecap:round;"/>
     </g>
     <g id="text_8">
      <!-- 0.2 -->
      <g style="fill:#262626;" transform="translate(45.998125 144.439441)scale(0.22 -0.22)">
       <use xlink:href="#ArialMT-48"/>
       <use x="55.615234" xlink:href="#ArialMT-46"/>
       <use x="83.398438" xlink:href="#ArialMT-50"/>
      </g>
     </g>
    </g>
    <g id="ytick_5">
     <g id="line2d_8">
      <path clip-path="url(#pcd6e945191)" d="M 86.078125 79.659601 
L 532.478125 79.659601 
" style="fill:none;stroke:#cccccc;stroke-linecap:round;"/>
     </g>
     <g id="text_9">
      <!-- 0.4 -->
      <g style="fill:#262626;" transform="translate(45.998125 87.533195)scale(0.22 -0.22)">
       <use xlink:href="#ArialMT-48"/>
       <use x="55.615234" xlink:href="#ArialMT-46"/>
       <use x="83.398438" xlink:href="#ArialMT-52"/>
      </g>
     </g>
    </g>
    <g id="text_10">
     <!-- $\Delta_w$ -->
     <defs>
      <path d="M 8.5 54.6875 
L 17.390625 54.6875 
L 19.671875 10.6875 
L 40.09375 54.6875 
L 50.484375 54.6875 
L 53.515625 10.6875 
L 72.90625 54.6875 
L 81.890625 54.6875 
L 56.890625 0 
L 46.390625 0 
L 43.703125 45.3125 
L 22.796875 0 
L 12.203125 0 
z
" id="DejaVuSans-Oblique-119"/>
     </defs>
     <g style="fill:#262626;" transform="translate(24.37875 209.05875)rotate(-90)scale(0.24 -0.24)">
      <use transform="translate(0 0.09375)" xlink:href="#DejaVuSans-916"/>
      <use transform="translate(69.365234 -16.3125)scale(0.7)" xlink:href="#DejaVuSans-Oblique-119"/>
     </g>
    </g>
   </g>
   <g id="line2d_9">
    <path clip-path="url(#pcd6e945191)" d="M 106.369034 220.302122 
L 122.451621 228.923913 
L 122.451621 228.923913 
L 138.534207 237.794689 
L 138.534207 237.794689 
L 155.853915 247.602611 
L 155.853915 247.602611 
L 174.410746 258.37463 
L 174.410746 258.37463 
L 194.204699 270.128083 
L 194.204699 270.128083 
L 216.472895 283.624884 
L 216.472895 283.624884 
L 241.215336 298.892227 
L 241.215336 298.892227 
L 272.143387 318.25885 
L 272.143387 318.25885 
L 309.257048 341.713295 
L 309.257048 341.713295 
L 309.299202 45.204205 
L 309.299202 45.204205 
L 314.24769 54.356314 
L 314.24769 54.356314 
L 319.196179 63.036914 
L 319.196179 63.036914 
L 324.144667 71.274616 
L 324.144667 71.274616 
L 329.093155 79.096065 
L 329.093155 79.096065 
L 334.041643 86.526088 
L 334.041643 86.526088 
L 338.990131 93.587832 
L 338.990131 93.587832 
L 343.938619 100.30289 
L 343.938619 100.30289 
L 348.887107 106.691416 
L 348.887107 106.691416 
L 353.835596 112.772231 
L 353.835596 112.772231 
L 358.784084 118.562923 
L 358.784084 118.562923 
L 364.969694 125.418248 
L 364.969694 125.418248 
L 371.155304 131.875669 
L 371.155304 131.875669 
L 377.340914 137.962626 
L 377.340914 137.962626 
L 383.526524 143.704399 
L 383.526524 143.704399 
L 389.712135 149.124302 
L 389.712135 149.124302 
L 395.897745 154.243854 
L 395.897745 154.243854 
L 402.083355 159.082927 
L 402.083355 159.082927 
L 408.268965 163.659891 
L 408.268965 163.659891 
L 414.454575 167.991739 
L 414.454575 167.991739 
L 421.877307 172.88847 
L 421.877307 172.88847 
L 429.30004 177.479827 
L 429.30004 177.479827 
L 436.722772 181.788642 
L 436.722772 181.788642 
L 444.145504 185.835793 
L 444.145504 185.835793 
L 451.568236 189.640383 
L 451.568236 189.640383 
L 458.990968 193.219915 
L 458.990968 193.219915 
L 473.836433 200.261996 
L 473.836433 200.261996 
L 488.681897 207.568991 
L 488.681897 207.568991 
L 503.527362 215.128736 
L 503.527362 215.128736 
L 512.187216 219.649792 
L 512.187216 219.649792 
" style="fill:none;stroke:#4c72b0;stroke-linecap:round;stroke-width:1.5;"/>
   </g>
   <g id="line2d_10">
    <path clip-path="url(#pcd6e945191)" d="M 181.136591 209.817627 
L 189.796446 216.742896 
L 189.796446 216.742896 
L 198.4563 223.95917 
L 198.4563 223.95917 
L 207.116154 231.467476 
L 207.116154 231.467476 
L 215.776008 239.268264 
L 215.776008 239.268264 
L 224.435863 247.361407 
L 224.435863 247.361407 
L 233.095717 255.7462 
L 233.095717 255.7462 
L 241.755571 264.421369 
L 241.755571 264.421369 
L 250.415425 273.385073 
L 250.415425 273.385073 
L 259.075279 282.634916 
L 259.075279 282.634916 
L 268.972256 293.552745 
L 268.972256 293.552745 
L 278.869232 304.835216 
L 278.869232 304.835216 
L 288.766208 316.476218 
L 288.766208 316.476218 
L 298.663185 328.468802 
L 298.663185 328.468802 
L 308.560161 340.805214 
L 308.560161 340.805214 
L 309.299202 45.204205 
L 309.299202 45.204205 
L 313.010568 54.371274 
L 313.010568 54.371274 
L 317.959057 65.907164 
L 317.959057 65.907164 
L 322.907545 76.711143 
L 322.907545 76.711143 
L 327.856033 86.836659 
L 327.856033 86.836659 
L 332.804521 96.332802 
L 332.804521 96.332802 
L 337.753009 105.244701 
L 337.753009 105.244701 
L 342.701497 113.613866 
L 342.701497 113.613866 
L 347.649985 121.47851 
L 347.649985 121.47851 
L 352.598474 128.873836 
L 352.598474 128.873836 
L 357.546962 135.832297 
L 357.546962 135.832297 
L 362.49545 142.38383 
L 362.49545 142.38383 
L 367.443938 148.556072 
L 367.443938 148.556072 
L 372.392426 154.374553 
L 372.392426 154.374553 
L 377.340914 159.862873 
L 377.340914 159.862873 
L 382.289402 165.042862 
L 382.289402 165.042862 
L 387.23789 169.934728 
L 387.23789 169.934728 
L 392.186379 174.557186 
L 392.186379 174.557186 
L 397.134867 178.927583 
L 397.134867 178.927583 
L 403.320477 184.060514 
L 403.320477 184.060514 
L 409.506087 188.853552 
L 409.506087 188.853552 
L 415.691697 193.333046 
L 415.691697 193.333046 
L 424.351551 199.518961 
L 424.351551 199.518961 
L 433.011406 205.990393 
L 433.011406 205.990393 
L 436.722772 208.851972 
L 436.722772 208.851972 
" style="fill:none;stroke:#dd8452;stroke-linecap:round;stroke-width:1.5;"/>
   </g>
   <g id="line2d_11">
    <path clip-path="url(#pcd6e945191)" d="M 215.277928 204.531646 
L 215.287661 205.798661 
L 215.287661 205.798661 
L 221.473271 212.317734 
L 221.473271 212.317734 
L 227.658882 219.149036 
L 227.658882 219.149036 
L 233.844492 226.300001 
L 233.844492 226.300001 
L 240.030102 233.777857 
L 240.030102 233.777857 
L 246.215712 241.589603 
L 246.215712 241.589603 
L 252.401322 249.741995 
L 252.401322 249.741995 
L 258.586932 258.241529 
L 258.586932 258.241529 
L 264.772543 267.094424 
L 264.772543 267.094424 
L 270.958153 276.306609 
L 270.958153 276.306609 
L 277.143763 285.883707 
L 277.143763 285.883707 
L 283.329373 295.831022 
L 283.329373 295.831022 
L 289.514983 306.153528 
L 289.514983 306.153528 
L 295.700593 316.855854 
L 295.700593 316.855854 
L 301.886204 327.942275 
L 301.886204 327.942275 
L 308.071814 339.416703 
L 308.071814 339.416703 
L 309.299202 45.204205 
L 309.299202 45.204205 
L 313.010568 56.606505 
L 313.010568 56.606505 
L 316.721935 67.34904 
L 316.721935 67.34904 
L 320.433301 77.474991 
L 320.433301 77.474991 
L 324.144667 87.024417 
L 324.144667 87.024417 
L 327.856033 96.034508 
L 327.856033 96.034508 
L 331.567399 104.539802 
L 331.567399 104.539802 
L 335.278765 112.572394 
L 335.278765 112.572394 
L 338.990131 120.162123 
L 338.990131 120.162123 
L 342.701497 127.336744 
L 342.701497 127.336744 
L 346.412863 134.122086 
L 346.412863 134.122086 
L 350.124229 140.542198 
L 350.124229 140.542198 
L 353.835596 146.619484 
L 353.835596 146.619484 
L 358.784084 154.225129 
L 358.784084 154.225129 
L 363.732572 161.303899 
L 363.732572 161.303899 
L 368.68106 167.897404 
L 368.68106 167.897404 
L 373.629548 174.04361 
L 373.629548 174.04361 
L 378.578036 179.777187 
L 378.578036 179.777187 
L 383.526524 185.129823 
L 383.526524 185.129823 
L 388.475013 190.130501 
L 388.475013 190.130501 
L 402.083355 203.276754 
L 402.083355 203.276754 
" style="fill:none;stroke:#55a868;stroke-linecap:round;stroke-width:1.5;"/>
   </g>
   <g id="line2d_12">
    <path clip-path="url(#pcd6e945191)" d="M 234.531645 203.085105 
L 239.480133 209.518873 
L 239.480133 209.518873 
L 244.428621 216.290234 
L 244.428621 216.290234 
L 249.37711 223.410808 
L 249.37711 223.410808 
L 254.325598 230.892285 
L 254.325598 230.892285 
L 259.274086 238.746412 
L 259.274086 238.746412 
L 264.222574 246.984975 
L 264.222574 246.984975 
L 269.171062 255.619785 
L 269.171062 255.619785 
L 274.11955 264.662659 
L 274.11955 264.662659 
L 279.068038 274.125406 
L 279.068038 274.125406 
L 284.016526 284.019807 
L 284.016526 284.019807 
L 288.965015 294.357601 
L 288.965015 294.357601 
L 293.913503 305.150466 
L 293.913503 305.150466 
L 298.861991 316.410002 
L 298.861991 316.410002 
L 303.810479 328.147711 
L 303.810479 328.147711 
L 308.758967 340.374987 
L 308.758967 340.374987 
L 309.299202 45.204205 
L 309.299202 45.204205 
L 313.010568 58.819568 
L 313.010568 58.819568 
L 316.721935 71.52052 
L 316.721935 71.52052 
L 320.433301 83.375502 
L 320.433301 83.375502 
L 324.144667 94.44736 
L 324.144667 94.44736 
L 327.856033 104.79384 
L 327.856033 104.79384 
L 331.567399 114.468031 
L 331.567399 114.468031 
L 335.278765 123.518772 
L 335.278765 123.518772 
L 338.990131 131.991021 
L 338.990131 131.991021 
L 342.701497 139.926182 
L 342.701497 139.926182 
L 346.412863 147.362414 
L 346.412863 147.362414 
L 350.124229 154.334903 
L 350.124229 154.334903 
L 353.835596 160.876115 
L 353.835596 160.876115 
L 357.546962 167.016018 
L 357.546962 167.016018 
L 361.258328 172.782296 
L 361.258328 172.782296 
L 364.969694 178.200534 
L 364.969694 178.200534 
L 368.68106 183.294389 
L 368.68106 183.294389 
L 372.392426 188.085752 
L 372.392426 188.085752 
L 376.103792 192.594886 
L 376.103792 192.594886 
L 382.289402 199.991211 
L 382.289402 199.991211 
L 383.526524 201.528058 
L 383.526524 201.528058 
" style="fill:none;stroke:#c44e52;stroke-linecap:round;stroke-width:1.5;"/>
   </g>
   <g id="line2d_13">
    <path clip-path="url(#pcd6e945191)" d="M 247.443101 200.311472 
L 247.723505 202.168626 
L 247.723505 202.168626 
L 252.671993 209.907643 
L 252.671993 209.907643 
L 257.620481 218.161823 
L 257.620481 218.161823 
L 262.56897 226.956377 
L 262.56897 226.956377 
L 267.517458 236.317144 
L 267.517458 236.317144 
L 272.465946 246.270572 
L 272.465946 246.270572 
L 277.414434 256.843694 
L 277.414434 256.843694 
L 282.362922 268.064109 
L 282.362922 268.064109 
L 287.31141 279.959955 
L 287.31141 279.959955 
L 292.259898 292.559881 
L 292.259898 292.559881 
L 297.208387 305.893021 
L 297.208387 305.893021 
L 302.156875 319.988963 
L 302.156875 319.988963 
L 307.105363 334.877713 
L 307.105363 334.877713 
L 308.342485 338.727332 
L 308.342485 338.727332 
L 309.299202 45.204205 
L 309.299202 45.204205 
L 313.010568 61.010684 
L 313.010568 61.010684 
L 316.721935 75.610077 
L 316.721935 75.610077 
L 320.433301 89.1039 
L 320.433301 89.1039 
L 324.144667 101.584419 
L 324.144667 101.584419 
L 327.856033 113.135561 
L 327.856033 113.135561 
L 331.567399 123.833713 
L 331.567399 123.833713 
L 335.278765 133.748454 
L 335.278765 133.748454 
L 338.990131 142.9432 
L 338.990131 142.9432 
L 342.701497 151.475795 
L 342.701497 151.475795 
L 346.412863 159.399033 
L 346.412863 159.399033 
L 350.124229 166.761131 
L 350.124229 166.761131 
L 353.835596 173.606158 
L 353.835596 173.606158 
L 357.546962 179.974414 
L 357.546962 179.974414 
L 361.258328 185.902782 
L 361.258328 185.902782 
L 364.969694 191.425032 
L 364.969694 191.425032 
L 369.918182 198.484601 
L 369.918182 198.484601 
" style="fill:none;stroke:#8172b3;stroke-linecap:round;stroke-width:1.5;"/>
   </g>
   <g id="line2d_14">
    <path clip-path="url(#pcd6e945191)" d="M 256.102955 199.722957 
L 257.141271 201.885516 
L 257.141271 201.885516 
L 260.852637 208.63439 
L 260.852637 208.63439 
L 264.564003 215.789677 
L 264.564003 215.789677 
L 268.275369 223.370676 
L 268.275369 223.370676 
L 271.986735 231.397288 
L 271.986735 231.397288 
L 275.698101 239.890023 
L 275.698101 239.890023 
L 279.409467 248.869998 
L 279.409467 248.869998 
L 283.120833 258.358943 
L 283.120833 258.358943 
L 286.832199 268.379196 
L 286.832199 268.379196 
L 290.543565 278.953709 
L 290.543565 278.953709 
L 294.254932 290.106039 
L 294.254932 290.106039 
L 297.966298 301.860352 
L 297.966298 301.860352 
L 301.677664 314.241417 
L 301.677664 314.241417 
L 305.38903 327.274602 
L 305.38903 327.274602 
L 309.100396 340.985867 
L 309.100396 340.985867 
L 309.299202 45.204205 
L 309.299202 45.204205 
L 313.010568 63.18007 
L 313.010568 63.18007 
L 316.721935 79.619321 
L 316.721935 79.619321 
L 320.433301 94.665205 
L 320.433301 94.665205 
L 324.144667 108.446606 
L 324.144667 108.446606 
L 327.856033 121.079582 
L 327.856033 121.079582 
L 331.567399 132.668725 
L 331.567399 132.668725 
L 335.278765 143.308363 
L 335.278765 143.308363 
L 338.990131 153.083641 
L 338.990131 153.083641 
L 342.701497 162.071469 
L 342.701497 162.071469 
L 346.412863 170.341376 
L 346.412863 170.341376 
L 350.124229 177.956262 
L 350.124229 177.956262 
L 353.835596 184.973079 
L 353.835596 184.973079 
L 357.546962 191.443425 
L 357.546962 191.443425 
L 361.258328 197.602795 
L 361.258328 197.602795 
" style="fill:none;stroke:#937860;stroke-linecap:round;stroke-width:1.5;"/>
   </g>
   <g id="line2d_15">
    <path clip-path="url(#pcd6e945191)" d="M 263.193394 199.954038 
L 266.904761 207.581343 
L 266.904761 207.581343 
L 270.616127 215.750214 
L 270.616127 215.750214 
L 274.327493 224.492252 
L 274.327493 224.492252 
L 278.038859 233.84042 
L 278.038859 233.84042 
L 281.750225 243.829069 
L 281.750225 243.829069 
L 285.461591 254.493972 
L 285.461591 254.493972 
L 289.172957 265.872344 
L 289.172957 265.872344 
L 292.884323 278.002873 
L 292.884323 278.002873 
L 296.595689 290.925741 
L 296.595689 290.925741 
L 300.307055 304.682651 
L 300.307055 304.682651 
L 304.018422 319.316844 
L 304.018422 319.316844 
L 307.729788 334.873125 
L 307.729788 334.873125 
L 308.96691 340.271432 
L 308.96691 340.271432 
L 309.299202 45.204205 
L 309.299202 45.204205 
L 311.773446 58.841612 
L 311.773446 58.841612 
L 314.24769 71.603154 
L 314.24769 71.603154 
L 316.721935 83.549829 
L 316.721935 83.549829 
L 319.196179 94.738085 
L 319.196179 94.738085 
L 321.670423 105.220179 
L 321.670423 105.220179 
L 324.144667 115.044505 
L 324.144667 115.044505 
L 326.618911 124.255904 
L 326.618911 124.255904 
L 330.330277 137.013841 
L 330.330277 137.013841 
L 334.041643 148.613244 
L 334.041643 148.613244 
L 337.753009 159.168276 
L 337.753009 159.168276 
L 341.464375 168.781046 
L 341.464375 168.781046 
L 345.175741 177.542958 
L 345.175741 177.542958 
L 348.887107 185.53591 
L 348.887107 185.53591 
L 352.598474 192.833335 
L 352.598474 192.833335 
L 355.072718 197.526681 
L 355.072718 197.526681 
" style="fill:none;stroke:#da8bc3;stroke-linecap:round;stroke-width:1.5;"/>
   </g>
   <g id="line2d_16">
    <path clip-path="url(#pcd6e945191)" d="M 268.474175 197.290861 
L 268.682715 200.021633 
L 268.682715 200.021633 
L 272.394081 208.660129 
L 272.394081 208.660129 
L 276.105447 218.004116 
L 276.105447 218.004116 
L 279.816813 228.102297 
L 279.816813 228.102297 
L 283.528179 239.00602 
L 283.528179 239.00602 
L 287.239545 250.769368 
L 287.239545 250.769368 
L 290.950912 263.44925 
L 290.950912 263.44925 
L 294.662278 277.1055 
L 294.662278 277.1055 
L 298.373644 291.800962 
L 298.373644 291.800962 
L 302.08501 307.601587 
L 302.08501 307.601587 
L 305.796376 324.57652 
L 305.796376 324.57652 
L 308.27062 336.581167 
L 308.27062 336.581167 
L 309.299202 45.204205 
L 309.299202 45.204205 
L 311.773446 60.307068 
L 311.773446 60.307068 
L 314.24769 74.346502 
L 314.24769 74.346502 
L 316.721935 87.403147 
L 316.721935 87.403147 
L 319.196179 99.551128 
L 319.196179 99.551128 
L 321.670423 110.858609 
L 321.670423 110.858609 
L 324.144667 121.388296 
L 324.144667 121.388296 
L 326.618911 131.197909 
L 326.618911 131.197909 
L 329.093155 140.340592 
L 329.093155 140.340592 
L 331.567399 148.865304 
L 331.567399 148.865304 
L 334.041643 156.817164 
L 334.041643 156.817164 
L 336.515887 164.237772 
L 336.515887 164.237772 
L 338.990131 171.165501 
L 338.990131 171.165501 
L 341.464375 177.635759 
L 341.464375 177.635759 
L 343.938619 183.681235 
L 343.938619 183.681235 
L 346.412863 189.332119 
L 346.412863 189.332119 
L 348.887107 194.631681 
L 348.887107 194.631681 
" style="fill:none;stroke:#8c8c8c;stroke-linecap:round;stroke-width:1.5;"/>
   </g>
   <g id="line2d_17">
    <path clip-path="url(#pcd6e945191)" d="M 272.185541 197.755776 
L 274.535062 203.95777 
L 274.535062 203.95777 
L 278.246428 213.977852 
L 278.246428 213.977852 
L 281.957794 224.919753 
L 281.957794 224.919753 
L 285.66916 236.856612 
L 285.66916 236.856612 
L 289.380526 249.866311 
L 289.380526 249.866311 
L 293.091892 264.031705 
L 293.091892 264.031705 
L 296.803258 279.440841 
L 296.803258 279.440841 
L 300.514625 296.187198 
L 300.514625 296.187198 
L 304.225991 314.369919 
L 304.225991 314.369919 
L 307.937357 334.094049 
L 307.937357 334.094049 
L 309.174479 341.030331 
L 309.174479 341.030331 
L 309.299202 45.204205 
L 309.299202 45.204205 
L 311.773446 61.762803 
L 311.773446 61.762803 
L 314.24769 77.053694 
L 314.24769 77.053694 
L 316.721935 91.180791 
L 316.721935 91.180791 
L 319.196179 104.238969 
L 319.196179 104.238969 
L 321.670423 116.314892 
L 321.670423 116.314892 
L 324.144667 127.487766 
L 324.144667 127.487766 
L 326.618911 137.83001 
L 326.618911 137.83001 
L 329.093155 147.407875 
L 329.093155 147.407875 
L 331.567399 156.281994 
L 331.567399 156.281994 
L 334.041643 164.507887 
L 334.041643 164.507887 
L 336.515887 172.136417 
L 336.515887 172.136417 
L 338.990131 179.2142 
L 338.990131 179.2142 
L 341.464375 185.783982 
L 341.464375 185.783982 
L 343.938619 191.884977 
L 343.938619 191.884977 
L 345.175741 194.790898 
L 345.175741 194.790898 
" style="fill:none;stroke:#ccb974;stroke-linecap:round;stroke-width:1.5;"/>
   </g>
   <g id="patch_3">
    <path d="M 86.078125 356.53875 
L 86.078125 30.37875 
" style="fill:none;stroke:#cccccc;stroke-linecap:square;stroke-linejoin:miter;stroke-width:1.25;"/>
   </g>
   <g id="patch_4">
    <path d="M 532.478125 356.53875 
L 532.478125 30.37875 
" style="fill:none;stroke:#cccccc;stroke-linecap:square;stroke-linejoin:miter;stroke-width:1.25;"/>
   </g>
   <g id="patch_5">
    <path d="M 86.078125 356.53875 
L 532.478125 356.53875 
" style="fill:none;stroke:#cccccc;stroke-linecap:square;stroke-linejoin:miter;stroke-width:1.25;"/>
   </g>
   <g id="patch_6">
    <path d="M 86.078125 30.37875 
L 532.478125 30.37875 
" style="fill:none;stroke:#cccccc;stroke-linecap:square;stroke-linejoin:miter;stroke-width:1.25;"/>
   </g>
   <g id="text_11">
    <!-- VDSP with w=0.5 -->
    <defs>
     <path d="M 28.171875 0 
L 0.4375 71.578125 
L 10.6875 71.578125 
L 29.296875 19.578125 
Q 31.546875 13.328125 33.0625 7.859375 
Q 34.71875 13.71875 36.921875 19.578125 
L 56.25 71.578125 
L 65.921875 71.578125 
L 37.890625 0 
z
" id="ArialMT-86"/>
     <path d="M 7.71875 0 
L 7.71875 71.578125 
L 32.375 71.578125 
Q 40.71875 71.578125 45.125 70.5625 
Q 51.265625 69.140625 55.609375 65.4375 
Q 61.28125 60.640625 64.078125 53.1875 
Q 66.890625 45.75 66.890625 36.1875 
Q 66.890625 28.03125 64.984375 21.734375 
Q 63.09375 15.4375 60.109375 11.296875 
Q 57.125 7.171875 53.578125 4.796875 
Q 50.046875 2.4375 45.046875 1.21875 
Q 40.046875 0 33.546875 0 
z
M 17.1875 8.453125 
L 32.46875 8.453125 
Q 39.546875 8.453125 43.578125 9.765625 
Q 47.609375 11.078125 50 13.484375 
Q 53.375 16.84375 55.25 22.53125 
Q 57.125 28.21875 57.125 36.328125 
Q 57.125 47.5625 53.4375 53.59375 
Q 49.75 59.625 44.484375 61.671875 
Q 40.671875 63.140625 32.234375 63.140625 
L 17.1875 63.140625 
z
" id="ArialMT-68"/>
     <path d="M 4.5 23 
L 13.421875 23.78125 
Q 14.0625 18.40625 16.375 14.96875 
Q 18.703125 11.53125 23.578125 9.40625 
Q 28.46875 7.28125 34.578125 7.28125 
Q 39.984375 7.28125 44.140625 8.890625 
Q 48.296875 10.5 50.3125 13.296875 
Q 52.34375 16.109375 52.34375 19.4375 
Q 52.34375 22.796875 50.390625 25.3125 
Q 48.4375 27.828125 43.953125 29.546875 
Q 41.0625 30.671875 31.203125 33.03125 
Q 21.34375 35.40625 17.390625 37.5 
Q 12.25 40.1875 9.734375 44.15625 
Q 7.234375 48.140625 7.234375 53.078125 
Q 7.234375 58.5 10.296875 63.203125 
Q 13.375 67.921875 19.28125 70.359375 
Q 25.203125 72.796875 32.421875 72.796875 
Q 40.375 72.796875 46.453125 70.234375 
Q 52.546875 67.671875 55.8125 62.6875 
Q 59.078125 57.71875 59.328125 51.421875 
L 50.25 50.734375 
Q 49.515625 57.515625 45.28125 60.984375 
Q 41.0625 64.453125 32.8125 64.453125 
Q 24.21875 64.453125 20.28125 61.296875 
Q 16.359375 58.15625 16.359375 53.71875 
Q 16.359375 49.859375 19.140625 47.359375 
Q 21.875 44.875 33.421875 42.265625 
Q 44.96875 39.65625 49.265625 37.703125 
Q 55.515625 34.8125 58.484375 30.390625 
Q 61.46875 25.984375 61.46875 20.21875 
Q 61.46875 14.5 58.203125 9.4375 
Q 54.9375 4.390625 48.796875 1.578125 
Q 42.671875 -1.21875 35.015625 -1.21875 
Q 25.296875 -1.21875 18.71875 1.609375 
Q 12.15625 4.4375 8.421875 10.125 
Q 4.6875 15.828125 4.5 23 
z
" id="ArialMT-83"/>
     <path d="M 7.71875 0 
L 7.71875 71.578125 
L 34.71875 71.578125 
Q 41.84375 71.578125 45.609375 70.90625 
Q 50.875 70.015625 54.4375 67.546875 
Q 58.015625 65.09375 60.1875 60.640625 
Q 62.359375 56.203125 62.359375 50.875 
Q 62.359375 41.75 56.546875 35.421875 
Q 50.734375 29.109375 35.546875 29.109375 
L 17.1875 29.109375 
L 17.1875 0 
z
M 17.1875 37.546875 
L 35.6875 37.546875 
Q 44.875 37.546875 48.734375 40.96875 
Q 52.59375 44.390625 52.59375 50.59375 
Q 52.59375 55.078125 50.3125 58.265625 
Q 48.046875 61.46875 44.34375 62.5 
Q 41.9375 63.140625 35.5 63.140625 
L 17.1875 63.140625 
z
" id="ArialMT-80"/>
     <path id="ArialMT-32"/>
     <path d="M 16.15625 0 
L 0.296875 51.859375 
L 9.375 51.859375 
L 17.625 21.921875 
L 20.703125 10.796875 
Q 20.90625 11.625 23.390625 21.484375 
L 31.640625 51.859375 
L 40.671875 51.859375 
L 48.4375 21.78125 
L 51.03125 11.859375 
L 54 21.875 
L 62.890625 51.859375 
L 71.4375 51.859375 
L 55.21875 0 
L 46.09375 0 
L 37.84375 31.0625 
L 35.84375 39.890625 
L 25.34375 0 
z
" id="ArialMT-119"/>
     <path d="M 6.640625 61.46875 
L 6.640625 71.578125 
L 15.4375 71.578125 
L 15.4375 61.46875 
z
M 6.640625 0 
L 6.640625 51.859375 
L 15.4375 51.859375 
L 15.4375 0 
z
" id="ArialMT-105"/>
     <path d="M 25.78125 7.859375 
L 27.046875 0.09375 
Q 23.34375 -0.6875 20.40625 -0.6875 
Q 15.625 -0.6875 12.984375 0.828125 
Q 10.359375 2.34375 9.28125 4.8125 
Q 8.203125 7.28125 8.203125 15.1875 
L 8.203125 45.015625 
L 1.765625 45.015625 
L 1.765625 51.859375 
L 8.203125 51.859375 
L 8.203125 64.703125 
L 16.9375 69.96875 
L 16.9375 51.859375 
L 25.78125 51.859375 
L 25.78125 45.015625 
L 16.9375 45.015625 
L 16.9375 14.703125 
Q 16.9375 10.9375 17.40625 9.859375 
Q 17.875 8.796875 18.921875 8.15625 
Q 19.96875 7.515625 21.921875 7.515625 
Q 23.390625 7.515625 25.78125 7.859375 
z
" id="ArialMT-116"/>
     <path d="M 6.59375 0 
L 6.59375 71.578125 
L 15.375 71.578125 
L 15.375 45.90625 
Q 21.53125 53.03125 30.90625 53.03125 
Q 36.671875 53.03125 40.921875 50.75 
Q 45.171875 48.484375 47 44.484375 
Q 48.828125 40.484375 48.828125 32.859375 
L 48.828125 0 
L 40.046875 0 
L 40.046875 32.859375 
Q 40.046875 39.453125 37.1875 42.453125 
Q 34.328125 45.453125 29.109375 45.453125 
Q 25.203125 45.453125 21.75 43.421875 
Q 18.3125 41.40625 16.84375 37.9375 
Q 15.375 34.46875 15.375 28.375 
L 15.375 0 
z
" id="ArialMT-104"/>
     <path d="M 52.828125 42.09375 
L 5.5625 42.09375 
L 5.5625 50.296875 
L 52.828125 50.296875 
z
M 52.828125 20.359375 
L 5.5625 20.359375 
L 5.5625 28.5625 
L 52.828125 28.5625 
z
" id="ArialMT-61"/>
     <path d="M 4.15625 18.75 
L 13.375 19.53125 
Q 14.40625 12.796875 18.140625 9.390625 
Q 21.875 6 27.15625 6 
Q 33.5 6 37.890625 10.78125 
Q 42.28125 15.578125 42.28125 23.484375 
Q 42.28125 31 38.0625 35.34375 
Q 33.84375 39.703125 27 39.703125 
Q 22.75 39.703125 19.328125 37.765625 
Q 15.921875 35.84375 13.96875 32.765625 
L 5.71875 33.84375 
L 12.640625 70.609375 
L 48.25 70.609375 
L 48.25 62.203125 
L 19.671875 62.203125 
L 15.828125 42.96875 
Q 22.265625 47.46875 29.34375 47.46875 
Q 38.71875 47.46875 45.15625 40.96875 
Q 51.609375 34.46875 51.609375 24.265625 
Q 51.609375 14.546875 45.953125 7.46875 
Q 39.0625 -1.21875 27.15625 -1.21875 
Q 17.390625 -1.21875 11.203125 4.25 
Q 5.03125 9.71875 4.15625 18.75 
z
" id="ArialMT-53"/>
    </defs>
    <g style="fill:#262626;" transform="translate(216.446875 24.37875)scale(0.24 -0.24)">
     <use xlink:href="#ArialMT-86"/>
     <use x="66.699219" xlink:href="#ArialMT-68"/>
     <use x="138.916016" xlink:href="#ArialMT-83"/>
     <use x="205.615234" xlink:href="#ArialMT-80"/>
     <use x="270.564453" xlink:href="#ArialMT-32"/>
     <use x="298.347656" xlink:href="#ArialMT-119"/>
     <use x="370.564453" xlink:href="#ArialMT-105"/>
     <use x="392.78125" xlink:href="#ArialMT-116"/>
     <use x="420.564453" xlink:href="#ArialMT-104"/>
     <use x="476.179688" xlink:href="#ArialMT-32"/>
     <use x="503.962891" xlink:href="#ArialMT-119"/>
     <use x="576.179688" xlink:href="#ArialMT-61"/>
     <use x="634.578125" xlink:href="#ArialMT-48"/>
     <use x="690.193359" xlink:href="#ArialMT-46"/>
     <use x="717.976562" xlink:href="#ArialMT-53"/>
    </g>
   </g>
   <g id="legend_1">
    <g id="patch_7">
     <path d="M 143.738125 141.337812 
L 517.078125 141.337812 
Q 521.478125 141.337812 521.478125 136.937812 
L 521.478125 45.77875 
Q 521.478125 41.37875 517.078125 41.37875 
L 143.738125 41.37875 
Q 139.338125 41.37875 139.338125 45.77875 
L 139.338125 136.937812 
Q 139.338125 141.337812 143.738125 141.337812 
z
" style="fill:#ffffff;opacity:0.8;stroke:#cccccc;stroke-linejoin:miter;"/>
    </g>
    <g id="line2d_18">
     <path d="M 148.138125 58.225937 
L 192.138125 58.225937 
" style="fill:none;stroke:#4c72b0;stroke-linecap:round;stroke-width:1.5;"/>
    </g>
    <g id="line2d_19"/>
    <g id="text_12">
     <!-- 0.2 -->
     <g style="fill:#262626;" transform="translate(209.738125 65.925937)scale(0.22 -0.22)">
      <use xlink:href="#ArialMT-48"/>
      <use x="55.615234" xlink:href="#ArialMT-46"/>
      <use x="83.398438" xlink:href="#ArialMT-50"/>
     </g>
    </g>
    <g id="line2d_20">
     <path d="M 148.138125 89.345625 
L 192.138125 89.345625 
" style="fill:none;stroke:#dd8452;stroke-linecap:round;stroke-width:1.5;"/>
    </g>
    <g id="line2d_21"/>
    <g id="text_13">
     <!-- 0.3 -->
     <defs>
      <path d="M 4.203125 18.890625 
L 12.984375 20.0625 
Q 14.5 12.59375 18.140625 9.296875 
Q 21.78125 6 27 6 
Q 33.203125 6 37.46875 10.296875 
Q 41.75 14.59375 41.75 20.953125 
Q 41.75 27 37.796875 30.921875 
Q 33.84375 34.859375 27.734375 34.859375 
Q 25.25 34.859375 21.53125 33.890625 
L 22.515625 41.609375 
Q 23.390625 41.5 23.921875 41.5 
Q 29.546875 41.5 34.03125 44.421875 
Q 38.53125 47.359375 38.53125 53.46875 
Q 38.53125 58.296875 35.25 61.46875 
Q 31.984375 64.65625 26.8125 64.65625 
Q 21.6875 64.65625 18.265625 61.421875 
Q 14.84375 58.203125 13.875 51.765625 
L 5.078125 53.328125 
Q 6.6875 62.15625 12.390625 67.015625 
Q 18.109375 71.875 26.609375 71.875 
Q 32.46875 71.875 37.390625 69.359375 
Q 42.328125 66.84375 44.9375 62.5 
Q 47.5625 58.15625 47.5625 53.265625 
Q 47.5625 48.640625 45.0625 44.828125 
Q 42.578125 41.015625 37.703125 38.765625 
Q 44.046875 37.3125 47.5625 32.6875 
Q 51.078125 28.078125 51.078125 21.140625 
Q 51.078125 11.765625 44.234375 5.25 
Q 37.40625 -1.265625 26.953125 -1.265625 
Q 17.53125 -1.265625 11.296875 4.34375 
Q 5.078125 9.96875 4.203125 18.890625 
z
" id="ArialMT-51"/>
     </defs>
     <g style="fill:#262626;" transform="translate(209.738125 97.045625)scale(0.22 -0.22)">
      <use xlink:href="#ArialMT-48"/>
      <use x="55.615234" xlink:href="#ArialMT-46"/>
      <use x="83.398438" xlink:href="#ArialMT-51"/>
     </g>
    </g>
    <g id="line2d_22">
     <path d="M 148.138125 120.465312 
L 192.138125 120.465312 
" style="fill:none;stroke:#55a868;stroke-linecap:round;stroke-width:1.5;"/>
    </g>
    <g id="line2d_23"/>
    <g id="text_14">
     <!-- 0.4 -->
     <g style="fill:#262626;" transform="translate(209.738125 128.165312)scale(0.22 -0.22)">
      <use xlink:href="#ArialMT-48"/>
      <use x="55.615234" xlink:href="#ArialMT-46"/>
      <use x="83.398438" xlink:href="#ArialMT-52"/>
     </g>
    </g>
    <g id="line2d_24">
     <path d="M 284.318125 58.225937 
L 328.318125 58.225937 
" style="fill:none;stroke:#c44e52;stroke-linecap:round;stroke-width:1.5;"/>
    </g>
    <g id="line2d_25"/>
    <g id="text_15">
     <!-- 0.5 -->
     <g style="fill:#262626;" transform="translate(345.918125 65.925937)scale(0.22 -0.22)">
      <use xlink:href="#ArialMT-48"/>
      <use x="55.615234" xlink:href="#ArialMT-46"/>
      <use x="83.398438" xlink:href="#ArialMT-53"/>
     </g>
    </g>
    <g id="line2d_26">
     <path d="M 284.318125 89.345625 
L 328.318125 89.345625 
" style="fill:none;stroke:#8172b3;stroke-linecap:round;stroke-width:1.5;"/>
    </g>
    <g id="line2d_27"/>
    <g id="text_16">
     <!-- 0.6 -->
     <defs>
      <path d="M 49.75 54.046875 
L 41.015625 53.375 
Q 39.84375 58.546875 37.703125 60.890625 
Q 34.125 64.65625 28.90625 64.65625 
Q 24.703125 64.65625 21.53125 62.3125 
Q 17.390625 59.28125 14.984375 53.46875 
Q 12.59375 47.65625 12.5 36.921875 
Q 15.671875 41.75 20.265625 44.09375 
Q 24.859375 46.4375 29.890625 46.4375 
Q 38.671875 46.4375 44.84375 39.96875 
Q 51.03125 33.5 51.03125 23.25 
Q 51.03125 16.5 48.125 10.71875 
Q 45.21875 4.9375 40.140625 1.859375 
Q 35.0625 -1.21875 28.609375 -1.21875 
Q 17.625 -1.21875 10.6875 6.859375 
Q 3.765625 14.9375 3.765625 33.5 
Q 3.765625 54.25 11.421875 63.671875 
Q 18.109375 71.875 29.4375 71.875 
Q 37.890625 71.875 43.28125 67.140625 
Q 48.6875 62.40625 49.75 54.046875 
z
M 13.875 23.1875 
Q 13.875 18.65625 15.796875 14.5 
Q 17.71875 10.359375 21.1875 8.171875 
Q 24.65625 6 28.46875 6 
Q 34.03125 6 38.03125 10.484375 
Q 42.046875 14.984375 42.046875 22.703125 
Q 42.046875 30.125 38.078125 34.390625 
Q 34.125 38.671875 28.125 38.671875 
Q 22.171875 38.671875 18.015625 34.390625 
Q 13.875 30.125 13.875 23.1875 
z
" id="ArialMT-54"/>
     </defs>
     <g style="fill:#262626;" transform="translate(345.918125 97.045625)scale(0.22 -0.22)">
      <use xlink:href="#ArialMT-48"/>
      <use x="55.615234" xlink:href="#ArialMT-46"/>
      <use x="83.398438" xlink:href="#ArialMT-54"/>
     </g>
    </g>
    <g id="line2d_28">
     <path d="M 284.318125 120.465312 
L 328.318125 120.465312 
" style="fill:none;stroke:#937860;stroke-linecap:round;stroke-width:1.5;"/>
    </g>
    <g id="line2d_29"/>
    <g id="text_17">
     <!-- 0.7 -->
     <defs>
      <path d="M 4.734375 62.203125 
L 4.734375 70.65625 
L 51.078125 70.65625 
L 51.078125 63.8125 
Q 44.234375 56.546875 37.515625 44.484375 
Q 30.8125 32.421875 27.15625 19.671875 
Q 24.515625 10.6875 23.78125 0 
L 14.75 0 
Q 14.890625 8.453125 18.0625 20.40625 
Q 21.234375 32.375 27.171875 43.484375 
Q 33.109375 54.59375 39.796875 62.203125 
z
" id="ArialMT-55"/>
     </defs>
     <g style="fill:#262626;" transform="translate(345.918125 128.165312)scale(0.22 -0.22)">
      <use xlink:href="#ArialMT-48"/>
      <use x="55.615234" xlink:href="#ArialMT-46"/>
      <use x="83.398438" xlink:href="#ArialMT-55"/>
     </g>
    </g>
    <g id="line2d_30">
     <path d="M 420.498125 58.225937 
L 464.498125 58.225937 
" style="fill:none;stroke:#da8bc3;stroke-linecap:round;stroke-width:1.5;"/>
    </g>
    <g id="line2d_31"/>
    <g id="text_18">
     <!-- 0.8 -->
     <defs>
      <path d="M 17.671875 38.8125 
Q 12.203125 40.828125 9.5625 44.53125 
Q 6.9375 48.25 6.9375 53.421875 
Q 6.9375 61.234375 12.546875 66.546875 
Q 18.171875 71.875 27.484375 71.875 
Q 36.859375 71.875 42.578125 66.421875 
Q 48.296875 60.984375 48.296875 53.171875 
Q 48.296875 48.1875 45.671875 44.5 
Q 43.0625 40.828125 37.75 38.8125 
Q 44.34375 36.671875 47.78125 31.875 
Q 51.21875 27.09375 51.21875 20.453125 
Q 51.21875 11.28125 44.71875 5.03125 
Q 38.234375 -1.21875 27.640625 -1.21875 
Q 17.046875 -1.21875 10.546875 5.046875 
Q 4.046875 11.328125 4.046875 20.703125 
Q 4.046875 27.6875 7.59375 32.390625 
Q 11.140625 37.109375 17.671875 38.8125 
z
M 15.921875 53.71875 
Q 15.921875 48.640625 19.1875 45.40625 
Q 22.46875 42.1875 27.6875 42.1875 
Q 32.765625 42.1875 36.015625 45.375 
Q 39.265625 48.578125 39.265625 53.21875 
Q 39.265625 58.0625 35.90625 61.359375 
Q 32.5625 64.65625 27.59375 64.65625 
Q 22.5625 64.65625 19.234375 61.421875 
Q 15.921875 58.203125 15.921875 53.71875 
z
M 13.09375 20.65625 
Q 13.09375 16.890625 14.875 13.375 
Q 16.65625 9.859375 20.171875 7.921875 
Q 23.6875 6 27.734375 6 
Q 34.03125 6 38.125 10.046875 
Q 42.234375 14.109375 42.234375 20.359375 
Q 42.234375 26.703125 38.015625 30.859375 
Q 33.796875 35.015625 27.4375 35.015625 
Q 21.234375 35.015625 17.15625 30.90625 
Q 13.09375 26.8125 13.09375 20.65625 
z
" id="ArialMT-56"/>
     </defs>
     <g style="fill:#262626;" transform="translate(482.098125 65.925937)scale(0.22 -0.22)">
      <use xlink:href="#ArialMT-48"/>
      <use x="55.615234" xlink:href="#ArialMT-46"/>
      <use x="83.398438" xlink:href="#ArialMT-56"/>
     </g>
    </g>
    <g id="line2d_32">
     <path d="M 420.498125 89.345625 
L 464.498125 89.345625 
" style="fill:none;stroke:#8c8c8c;stroke-linecap:round;stroke-width:1.5;"/>
    </g>
    <g id="line2d_33"/>
    <g id="text_19">
     <!-- 0.9 -->
     <defs>
      <path d="M 5.46875 16.546875 
L 13.921875 17.328125 
Q 14.984375 11.375 18.015625 8.6875 
Q 21.046875 6 25.78125 6 
Q 29.828125 6 32.875 7.859375 
Q 35.9375 9.71875 37.890625 12.8125 
Q 39.84375 15.921875 41.15625 21.1875 
Q 42.484375 26.46875 42.484375 31.9375 
Q 42.484375 32.515625 42.4375 33.6875 
Q 39.796875 29.5 35.234375 26.875 
Q 30.671875 24.265625 25.34375 24.265625 
Q 16.453125 24.265625 10.296875 30.703125 
Q 4.15625 37.15625 4.15625 47.703125 
Q 4.15625 58.59375 10.578125 65.234375 
Q 17 71.875 26.65625 71.875 
Q 33.640625 71.875 39.421875 68.109375 
Q 45.21875 64.359375 48.21875 57.390625 
Q 51.21875 50.4375 51.21875 37.25 
Q 51.21875 23.53125 48.234375 15.40625 
Q 45.265625 7.28125 39.375 3.03125 
Q 33.5 -1.21875 25.59375 -1.21875 
Q 17.1875 -1.21875 11.859375 3.4375 
Q 6.546875 8.109375 5.46875 16.546875 
z
M 41.453125 48.140625 
Q 41.453125 55.71875 37.421875 60.15625 
Q 33.40625 64.59375 27.734375 64.59375 
Q 21.875 64.59375 17.53125 59.8125 
Q 13.1875 55.03125 13.1875 47.40625 
Q 13.1875 40.578125 17.3125 36.296875 
Q 21.4375 32.03125 27.484375 32.03125 
Q 33.59375 32.03125 37.515625 36.296875 
Q 41.453125 40.578125 41.453125 48.140625 
z
" id="ArialMT-57"/>
     </defs>
     <g style="fill:#262626;" transform="translate(482.098125 97.045625)scale(0.22 -0.22)">
      <use xlink:href="#ArialMT-48"/>
      <use x="55.615234" xlink:href="#ArialMT-46"/>
      <use x="83.398438" xlink:href="#ArialMT-57"/>
     </g>
    </g>
    <g id="line2d_34">
     <path d="M 420.498125 120.465312 
L 464.498125 120.465312 
" style="fill:none;stroke:#ccb974;stroke-linecap:round;stroke-width:1.5;"/>
    </g>
    <g id="line2d_35"/>
    <g id="text_20">
     <!-- 1.0 -->
     <g style="fill:#262626;" transform="translate(482.098125 128.165312)scale(0.22 -0.22)">
      <use xlink:href="#ArialMT-49"/>
      <use x="55.615234" xlink:href="#ArialMT-46"/>
      <use x="83.398438" xlink:href="#ArialMT-48"/>
     </g>
    </g>
   </g>
  </g>
 </g>
 <defs>
  <clipPath id="pcd6e945191">
   <rect height="326.16" width="446.4" x="86.078125" y="30.37875"/>
  </clipPath>
 </defs>
</svg>
